<?xml version="1.0" ?><svg id="Layer_1" style="enable-background:new 0 0 128 128;" version="1.1" viewBox="0 0 128 128" xml:space="preserve" xmlns="http://www.w3.org/2000/svg" xmlns:xlink="http://www.w3.org/1999/xlink"><style type="text/css">
	.st0{fill:#AA7100;}
	.st1{fill:#FCA100;}
	.st2{fill:#231F20;}
</style><path class="st0" d="M93.3,32.6c-2.6,0.8-5.1,0.8-7.6,0.6c0,0-44.4,56.3-52.2,56.4c-0.1,0.5,0.1,2.2,0,2.7c-0.3,2.1,1.9,4.7,4,3.1  c0.3-0.3,0.8-0.6,1.3-1c0.2,0,0.3,0,0.5,0c5.3-0.3,10.7-0.6,16-0.9c3.3-0.2,7.3,0,10.2-2.1c2.6-1.9,3.3-4.8,3.4-7.8  c0.1-5.2,0.5-9.9,3-14.7c1.1-2.1,2.6-4.5,4.7-5.9c2.3-1.5,5-0.9,7.6-0.8c3.1,0.1,6.2-0.2,8.6-2.3s2.5-4.9,2-7.9  c-1-5.9-0.3-10.6,2-16.1C97.6,34,95.2,32.1,93.3,32.6z"/><path class="st1" d="M86.7,54.3c-5.3,4.7-16,4.5-19.7,7.8c-3.7,3.3-5.2,16.5-11.8,23.5c-3.8,4-13.5,5-21.2,5.1  c0.5-1.9-5.4-19.6-0.2-25.8c4.6-5.4,30.5-6.4,32.1-9.5c1.8-3.6,0.1-7.9-0.3-11.6c-0.6-5.5,1.5-9.3,6.9-10.8  c4.5-1.2,8.9-0.2,13.3,0.1C87.3,41,90.3,51.2,86.7,54.3z"/><path class="st2" d="M97.7,38.5c0.8-3.1,2.8-7.8-1.2-9.5c-1.8-0.8-3.7,0.1-5.5,0.5c-4,0.9-7.6-1-11.6-1.6  c-13.6-2.1-19.9,11-16.6,22.6c0.5,9.7-11.5,6.7-17.6,6.5c-6.5-0.3-11.8,2.9-14.9,8.5c-2.9,5.2-3.9,11.9-1.7,17.5  c0.8,2.1,1.7,3.5,1.8,5.8c0,1.6-0.3,3.2-0.3,4.8c0,2.4,0.2,5.1,2.1,6.6c0.9,0.7,2.3,1.2,3.3,0.4c5.2-3.8,12.3-1.7,18.3-1.9  c5.7-0.2,11.6-2,15.4-6.5c4.1-4.9,3.6-10,3.3-16c-0.2-4,0.6-7.9,4.5-9.9c3.2-1.6,7.3-0.6,10.7-1.3c4.6-0.9,8.2-3.9,9.8-8.4  C99.7,50.4,96,44.5,97.7,38.5z M92.4,46.5c0.7,3.4,1.1,7.2-1.1,10.2c-2.6,3.7-6.9,2.9-10.8,3.2c-5,0.4-9.5,2.7-11.9,7.3  C65.4,73.1,69,79.4,67,85.3c-4.2,12.9-21.5,5.1-31.6,9.1c-0.3-2.4,0.7-6.2,0.5-7.7c-0.3-2.9-2.1-5.1-2.8-7.9  c1.3,0.3,2.4,0.8,3.6,1.5c3.1,1.8,5.8-3,2.8-4.7c-1.9-1.1-6.3-2.3-6.4-2.4c0.2-1.3,0.6-2.5,1.1-3.7c0.2,0.1,4.4,1.5,6,2.5  c3,1.8,5.8-2.9,2.8-4.7c-1.7-1-3.5-2-5.3-2.5c1.5-1.3,3.2-2.1,5.3-2.4c0.2,0.4,4.6,3.2,6.1,4.6c1.1,1,2.6,0.9,3.9,0  c2.5-1.8-0.2-4-0.2-4.1c2.7,0.2,5.3,0.1,8.3-1.2c5.1-2.1,7.6-6.1,7.2-11.6c0-0.2,0-0.3,0-0.5c0.5,0.2,0.9,0.4,1.3,0.7  c1.1,1,2.9,1.1,3.9,0s1.1-2.8,0-3.9c-1.7-1.6-3.8-2.4-6.1-2.5c0-0.8,0.1-1.6,0.2-2.4c0.1,0,3.1,0.7,3.8,1.1c1.3,0.6,3,0.4,3.8-1  c0.7-1.2,0.4-3.1-1-3.8c-1.2-0.6-2.8-1.3-4.4-1.7c1-1.2,2.3-2.2,4-2.7c0.1,0.3,3.5,3.4,4.9,4.9c1,1.1,2.9,1.1,3.9,0  c1.1-1.1,1-2.7,0-3.9c-0.1-0.2-0.3-0.3-0.5-0.5c1.7,0.5,3.3,1,5.1,1.2c1.3,0.1,2.6,0.2,4-0.1c0.6-0.1,1.9-0.8,2.7-0.9  c-1,0.4-1.7,3.8-1.9,5C91.3,41.7,91.9,44.1,92.4,46.5z"/></svg>